<?xml version="1.0" encoding="UTF-8"?>
<svg id="Layer_1" data-name="Layer 1" xmlns="http://www.w3.org/2000/svg" viewBox="0 0 846 834">
  <defs>
    <style>
      .cls-1 {
        font-family: MajorMonoDisplay-Regular, 'Major Mono Display';
        font-size: 59px;
      }

      .cls-1, .cls-2 {
        isolation: isolate;
      }

      .cls-3 {
        fill: #cad35c;
      }

      .cls-4 {
        fill: #c8d343;
      }

      .cls-5 {
        fill: #231f20;
      }

      .cls-6 {
        fill: none;
        stroke: #231f20;
        stroke-width: 12px;
      }
    </style>
  </defs>
  <ellipse id="Ellipse_1" data-name="Ellipse 1" class="cls-4" cx="423" cy="417" rx="423" ry="417"/>
  <g id="Layer_1-2" data-name="Layer 1">
    <path id="Path_3" data-name="Path 3" class="cls-6" d="m277.86,315.52c55.85,0,101.12,45.27,101.12,101.12s-45.27,101.12-101.12,101.12-101.12-45.27-101.12-101.12c0-55.85,45.27-101.12,101.12-101.12h0Z"/>
    <g id="Group_1" data-name="Group 1">
      <path id="Path_1" data-name="Path 1" class="cls-5" d="m267.08,420.17c-17.19,24.24-30.05,41.76-33.09,45.15-1.05,1.26-2.47,2.15-4.06,2.54-2.07.36-4.2-.19-5.84-1.52-6.72-6.14-13.44-12.28-20.17-18.42-1.97-1.76-2.91-4.4-2.5-7.01.74-4.66,3.53-8.74,7.6-11.12,5.29-2.96,11.8-2.65,16.8.78,1.52,1.03,2.56,2.63,2.89,4.44.3,1.69.61,3.37.91,5.06l.55.14c11.05-13.51,19.53-23.87,30.59-37.38,4.86-5.87,9.33-10.62,7.4-14.82-1.51-3.08-4.68-5-8.11-4.9-1.33.04-2.55.74-3.25,1.87l-1.36,2.21c-1.09,1.77-3.02,2.86-5.1,2.88l-41.35.21c-2.45.01-4.69-1.39-5.75-3.6-1.56-3.2-2.1-6.81-1.56-10.33.9-4.96,3.82-9.31,8.06-12.03,1.18-.78,2.57-1.2,3.99-1.19h111.96c2.14,0,4.23.67,5.97,1.92,4.11,2.89,7.14,7.05,8.64,11.85,2.46,8.16-.61,15.17-2.69,18.65-.79,1.34-1.82,2.53-3.03,3.51-5.37,4.38-10.74,8.76-16.11,13.15-1.36,1.11-3.07,1.72-4.83,1.72h-.78c-1.84-.04-3.54-1.03-4.48-2.61-.41-.69-1.09-1.17-1.88-1.33-1.75-.3-3.47,1.49-3.5,3.34.02,1.13.58,2.18,1.52,2.82.52.35,1.14.53,1.76.52h3.5c1.03,0,2,.51,2.59,1.36,11.63,16.96,23.26,33.92,34.89,50.87,1.1,1.58,1.48,3.54,1.05,5.42-.11.9-.6,1.72-1.34,2.24-2.41,1.56-5.52,1.51-7.89-.12-21.93-19-43.87-38-65.81-57.01-3.76-3.73-6.27.77-6.27.77h.07Z"/>
      <path id="Path_2" data-name="Path 2" class="cls-3" d="m299.56,389.71c1.04-1.86,2.1-3.71,3.14-5.58.4-.74,1-1.35,1.73-1.76.71-.41,1.5-.68,2.31-.78,3.03-.4,6.44,1.5,7.31,4.38.52,1.71.21,3.57-.84,5.01-3.48,2.01-7.49,2.93-11.5,2.64-1.45-.07-2.56-1.31-2.49-2.76.02-.41.14-.8.34-1.16Z"/>
    </g>
  </g>
  <g id="JOHANNES_RIIS_NIELSEN" data-name="JOHANNES RIIS NIELSEN" class="cls-2">
    <text class="cls-1" transform="translate(139 592)"><tspan x="0" y="0">JOHANNES RIIS</tspan></text>
    <text class="cls-1" transform="translate(139 663)"><tspan x="0" y="0">NIELSEN</tspan></text>
  </g>
</svg>