<?xml version="1.0" encoding="UTF-8"?>
<svg id="Layer_1" data-name="Layer 1" xmlns="http://www.w3.org/2000/svg" xmlns:xlink="http://www.w3.org/1999/xlink" viewBox="0 0 393 768">
  <defs>
    <style>
      .cls-1, .cls-2 {
        fill: none;
      }

      .cls-2 {
        stroke: #fff;
        stroke-width: 8px;
      }

      .cls-3 {
        clip-path: url(#clippath);
      }

      .cls-4 {
        fill: #fff;
      }

      .cls-5, .cls-6 {
        fill: #cad35c;
      }

      .cls-7 {
        fill: #231f20;
      }

      .cls-6 {
        stroke: #231f20;
        stroke-width: 14px;
      }

      .cls-8 {
        font-family: Monofett, Monofett;
        font-size: 29px;
      }

      .cls-8, .cls-9, .cls-10 {
        isolation: isolate;
      }

      .cls-9 {
        font-family: MajorMonoDisplay-Regular, 'Major Mono Display';
        font-size: 51px;
      }
    </style>
    <clipPath id="clippath">
      <rect class="cls-1" width="393" height="748"/>
    </clipPath>
  </defs>
  <g class="cls-3">
    <g id="iPhone_14_Pro_6" data-name="iPhone 14 Pro 6">
      <rect class="cls-4" y="20" width="393" height="748"/>
      <line id="Line_79" data-name="Line 79" class="cls-2" x1="22.5" y1="43.5" x2="76.5" y2="43.5"/>
      <g id="Portfolio" class="cls-10">
        <text class="cls-9" transform="translate(23 211)"><tspan x="0" y="0">Portfolio</tspan></text>
      </g>
      <g id="JOHANNES_RIIS_NIELSEN" data-name="JOHANNES RIIS NIELSEN" class="cls-10">
        <text class="cls-8" transform="translate(29 247)"><tspan x="0" y="0">JOHANNES RIIS NIELSEN</tspan></text>
      </g>
      <g id="Layer_1-2" data-name="Layer 1">
        <path id="Path_3" data-name="Path 3" class="cls-6" d="m196.5,269c93.34,0,169,75.28,169,168.14s-75.66,168.14-169,168.14S27.5,529.99,27.5,437.14s75.66-168.14,169-168.14Z"/>
        <g id="Group_1" data-name="Group 1">
          <path id="Path_1" data-name="Path 1" class="cls-7" d="m177.72,443c-28.59,40.31-49.97,69.43-55.01,75.07-1.74,2.09-4.11,3.57-6.75,4.23-3.45.6-6.99-.32-9.71-2.52-11.17-10.21-22.35-20.42-33.54-30.63-3.27-2.93-4.83-7.31-4.16-11.65,1.23-7.75,5.86-14.54,12.64-18.5,8.8-4.92,19.63-4.41,27.94,1.3,2.52,1.72,4.25,4.37,4.8,7.38.5,2.81,1.01,5.6,1.51,8.41l.91.24c18.38-22.46,32.48-39.69,50.86-62.15,8.07-9.75,15.52-17.66,12.3-24.65-2.5-5.12-7.78-8.31-13.48-8.14-2.21.06-4.24,1.22-5.4,3.1l-2.26,3.68c-1.81,2.95-5.02,4.76-8.48,4.78l-68.75.36c-4.07.02-7.79-2.31-9.56-5.98-2.59-5.33-3.5-11.32-2.59-17.18,1.73-10.69,8.98-17.03,13.4-20.01,1.96-1.3,4.27-1.99,6.63-1.97h186.16c3.56,0,7.03,1.11,9.92,3.2,6.83,4.81,11.88,11.73,14.37,19.7,4.08,13.57-1.01,25.22-4.47,31.01-1.32,2.23-3.03,4.21-5.04,5.84-8.93,7.28-17.86,14.57-26.79,21.86-2.26,1.85-5.1,2.86-8.02,2.86h-1.3c-3.07-.07-5.88-1.71-7.45-4.35-.68-1.14-1.82-1.95-3.12-2.21-2.91-.5-5.77,2.47-5.81,5.55.03,1.88.97,3.63,2.52,4.68.86.58,1.89.89,2.93.86h5.81c1.72,0,3.32.85,4.3,2.26,19.34,28.2,38.68,56.39,58.01,84.58,1.83,2.62,2.47,5.89,1.75,9.01-.55,2.33-1.3,3.05-2.23,3.72-3.65,2.59-8.86,2.52-13.12-.19-36.47-31.59-72.94-63.19-109.42-94.79-6.25-6.2-10.43,1.27-10.43,1.27l.12-.03Z"/>
          <path id="Path_2" data-name="Path 2" class="cls-5" d="m231.72,392.36c1.73-3.1,3.48-6.17,5.21-9.27.67-1.23,1.67-2.24,2.88-2.93,1.18-.68,2.49-1.12,3.84-1.3,5.04-.67,10.71,2.5,12.16,7.28,1.25,4.2-.86,8.02-1.39,8.34-4.44,2.62-10.57,4.78-19.12,4.4-2.41-.13-4.26-2.18-4.14-4.59.04-.67.23-1.33.56-1.92h0Z"/>
        </g>
      </g>
    </g>
  </g>
</svg>